<svg width="27" height="26" viewBox="0 0 27 26" fill="none" xmlns="http://www.w3.org/2000/svg">
<path d="M22.3665 13.149C22.3665 15.0977 22.3665 17.0542 22.3665 19.0029C22.3665 19.1744 22.4522 19.3615 22.2886 19.5251C22.156 19.6654 22.0235 19.7512 21.8131 19.7512C20.8075 19.7434 19.8098 19.7434 18.8043 19.7512C18.5626 19.7512 18.4223 19.6421 18.3132 19.455C17.8143 18.582 17.3077 17.709 16.8088 16.8359C15.8111 15.0743 14.8133 13.3049 13.8156 11.5432C13.7844 11.4965 13.7532 11.4419 13.7221 11.3951C13.6909 11.3484 13.6519 11.2938 13.5817 11.3172C13.5272 11.3328 13.5194 11.3874 13.5194 11.4419C13.5116 11.5355 13.5116 11.6368 13.5116 11.7303C13.5116 14.0999 13.5116 16.4618 13.5116 18.8314C13.5116 19.6265 13.3947 19.7434 12.5996 19.7434C12.1085 19.7434 11.6174 19.7434 11.1264 19.7434C10.6743 19.7434 10.495 19.5719 10.495 19.1354C10.495 15.1367 10.495 11.1379 10.495 7.13918C10.495 6.69487 10.6899 6.50779 11.1498 6.50779C12.1397 6.50779 13.1374 6.51559 14.1274 6.5C14.4002 6.5 14.5873 6.58574 14.7276 6.82738C15.4837 8.16809 16.2476 9.5088 17.0115 10.8417C17.7208 12.0889 18.4301 13.3361 19.1395 14.5832C19.1784 14.6534 19.2096 14.7703 19.3187 14.7313C19.4045 14.7002 19.3967 14.6066 19.3967 14.5287C19.4045 14.4195 19.3967 14.3182 19.3967 14.2091C19.3967 11.8784 19.3967 9.55557 19.3967 7.22492C19.3967 6.6559 19.5526 6.5 20.1294 6.5C20.6672 6.5 21.2129 6.5 21.7507 6.5C22.2028 6.5 22.3665 6.66369 22.3665 7.11579C22.3665 9.13465 22.3665 11.1379 22.3665 13.149Z" fill="#200020"/>
<path d="M6.89378 9.41525C6.54301 9.41525 6.18445 9.41525 5.83369 9.41525C5.45174 9.40746 5.24907 9.21259 5.24128 8.83843C5.24128 8.22264 5.2101 7.60685 5.28025 6.99106C5.31143 6.70265 5.47512 6.52337 5.77133 6.51558C6.53522 6.50778 7.30691 6.50778 8.0708 6.51558C8.367 6.52337 8.53849 6.70265 8.54628 7.00665C8.55408 7.64583 8.56187 8.285 8.54628 8.91638C8.53849 9.22817 8.34362 9.39966 8.01624 9.41525C7.64208 9.42305 7.26793 9.41525 6.89378 9.41525Z" fill="#DA0081"/>
</svg>
