<svg width="25" height="25" viewBox="0 0 25 25" fill="none" xmlns="http://www.w3.org/2000/svg">
<g id="franchises/mastercard">
<g id="Vector">
<path d="M6.77061 19.2348V18.3517C6.77061 18.0145 6.56508 17.7929 6.21183 17.7929C6.0352 17.7929 5.84573 17.8507 5.71085 18.0434C5.60809 17.8828 5.46036 17.7929 5.23877 17.7929C5.09105 17.7929 4.94333 17.8379 4.82772 17.9984V17.8218H4.51942V19.2348H4.82772V18.4545C4.82772 18.204 4.95938 18.0884 5.16491 18.0884C5.37044 18.0884 5.47321 18.22 5.47321 18.4545V19.2348H5.7815V18.4545C5.7815 18.204 5.92923 18.0884 6.1187 18.0884C6.32423 18.0884 6.42699 18.22 6.42699 18.4545V19.2348H6.77061ZM10.8427 17.8218V17.3947H10.5344V17.8218H10.255V18.1012H10.5344V18.7467C10.5344 19.0711 10.666 19.2605 11.0193 19.2605C11.151 19.2605 11.2987 19.2156 11.4014 19.1578L11.3147 18.8944C11.228 18.9522 11.1221 18.9683 11.0514 18.9683C10.9037 18.9683 10.8459 18.8816 10.8459 18.7339V18.1012H11.3469V17.8218H10.8427ZM13.9609 17.7929C13.7843 17.7929 13.6655 17.8796 13.5948 17.9984V17.8218H13.2865V19.2348H13.5948V18.4416C13.5948 18.2072 13.6976 18.0755 13.8903 18.0755C13.9481 18.0755 14.022 18.0916 14.083 18.1044L14.1697 17.809C14.1119 17.7929 14.022 17.7929 13.9641 17.7929H13.9609ZM10.0077 17.9406C9.85998 17.8379 9.65445 17.7929 9.43286 17.7929C9.07961 17.7929 8.84518 17.9695 8.84518 18.2489C8.84518 18.4834 9.0218 18.615 9.3301 18.66L9.47782 18.676C9.63839 18.705 9.72831 18.7499 9.72831 18.8238C9.72831 18.9265 9.60949 19.0004 9.40396 19.0004C9.19843 19.0004 9.03786 18.9265 8.9351 18.8527L8.78737 19.0871C8.94794 19.2059 9.16953 19.2637 9.39111 19.2637C9.80217 19.2637 10.0366 19.0743 10.0366 18.8077C10.0366 18.5572 9.84392 18.4256 9.55168 18.3806L9.40396 18.3645C9.27229 18.3485 9.16953 18.3196 9.16953 18.2329C9.16953 18.1301 9.27229 18.0723 9.43286 18.0723C9.60949 18.0723 9.78612 18.1462 9.87282 18.1911L10.0045 17.9406H10.0077ZM18.2128 17.7929C18.0362 17.7929 17.9174 17.8796 17.8467 17.9984V17.8218H17.5384V19.2348H17.8467V18.4416C17.8467 18.2072 17.9495 18.0755 18.1422 18.0755C18.2 18.0755 18.2738 18.0916 18.3349 18.1044L18.4216 17.809C18.3638 17.7929 18.2738 17.7929 18.216 17.7929H18.2128ZM14.2757 18.5283C14.2757 18.9554 14.5711 19.2637 15.0271 19.2637C15.2326 19.2637 15.3804 19.2188 15.5281 19.1032L15.3804 18.8527C15.2616 18.9426 15.1459 18.9843 15.0143 18.9843C14.7638 18.9843 14.5872 18.8077 14.5872 18.5283C14.5872 18.265 14.7638 18.0884 15.0143 18.0723C15.1459 18.0723 15.2648 18.1173 15.3804 18.204L15.5281 17.9535C15.3804 17.8347 15.2326 17.7929 15.0271 17.7929C14.5711 17.7929 14.2757 18.1012 14.2757 18.5283ZM17.1274 17.8218H16.8191V17.9984C16.7163 17.8668 16.5686 17.7929 16.3791 17.7929C15.9809 17.7929 15.6726 18.1012 15.6726 18.5283C15.6726 18.9554 15.9809 19.2637 16.3791 19.2637C16.5846 19.2637 16.7324 19.1899 16.8191 19.0582V19.2348H17.1274V17.8218ZM15.9938 18.5283C15.9938 18.2778 16.1543 18.0723 16.4209 18.0723C16.6714 18.0723 16.848 18.265 16.848 18.5283C16.848 18.7788 16.6714 18.9843 16.4209 18.9843C16.1575 18.9683 15.9938 18.7788 15.9938 18.5283ZM12.3039 17.7929C11.8928 17.7929 11.5973 18.0884 11.5973 18.5283C11.5973 18.9683 11.8928 19.2637 12.3167 19.2637C12.5222 19.2637 12.7278 19.2059 12.8915 19.0743L12.7438 18.8527C12.625 18.9426 12.4805 19.0004 12.3328 19.0004C12.1433 19.0004 11.9506 18.9105 11.9056 18.6632H12.9493V18.5444C12.9654 18.0884 12.6989 17.7929 12.3039 17.7929ZM12.3039 18.0562C12.4965 18.0562 12.6282 18.1751 12.6571 18.3934H11.9217C11.9506 18.204 12.0823 18.0562 12.3039 18.0562ZM19.9663 17.263H19.658V17.9984C19.5552 17.8668 19.4075 17.7929 19.218 17.7929C18.8198 17.7929 18.5115 18.1012 18.5115 18.5283C18.5115 18.9554 18.8198 19.2637 19.218 19.2637C19.4235 19.2637 19.5712 19.1899 19.658 19.0582V19.2348H19.9663V17.263ZM18.8326 18.5283C18.8326 18.2778 18.9932 18.0723 19.2597 18.0723C19.5102 18.0723 19.6869 18.265 19.6869 18.5283C19.6869 18.7788 19.5102 18.9843 19.2597 18.9843C18.9964 18.9683 18.8326 18.7788 18.8326 18.5283ZM8.51119 17.8218H8.2029V17.9984C8.10013 17.8668 7.95241 17.7929 7.76293 17.7929C7.36472 17.7929 7.05643 18.1012 7.05643 18.5283C7.05643 18.9554 7.36472 19.2637 7.76293 19.2637C7.96846 19.2637 8.11619 19.1899 8.2029 19.0582V19.2348H8.51119V17.8218ZM7.36472 18.5283C7.36472 18.2778 7.52529 18.0723 7.79184 18.0723C8.04233 18.0723 8.21895 18.265 8.21895 18.5283C8.21895 18.7788 8.04233 18.9843 7.79184 18.9843C7.5285 18.9683 7.36472 18.7788 7.36472 18.5283Z" fill="white"/>
<path d="M14.5326 7.10538H9.90173V15.4293H14.5326V7.10538Z" fill="#F94D00"/>
<path d="M10.1972 11.2641C10.1972 9.57173 10.9904 8.07201 12.2107 7.10217C11.3147 6.39566 10.1811 5.96854 8.94473 5.96854C6.01914 5.97175 3.65234 8.33856 3.65234 11.2641C3.65234 14.1897 6.01914 16.5565 8.94473 16.5565C10.1811 16.5565 11.3115 16.1294 12.2107 15.4229C10.9904 14.4659 10.1972 12.9533 10.1972 11.2609" fill="#EF0000"/>
<path d="M20.7852 11.2641C20.7852 14.1897 18.4184 16.5565 15.4928 16.5565C14.2564 16.5565 13.126 16.1294 12.2268 15.4229C13.4632 14.4531 14.2403 12.9533 14.2403 11.2609C14.2403 9.56852 13.4471 8.0688 12.2268 7.09896C13.1228 6.39245 14.2564 5.96533 15.4928 5.96533C18.4184 5.96533 20.7852 8.34819 20.7852 11.2577" fill="#FF9600"/>
</g>
</g>
</svg>
