<svg width="25" height="26" viewBox="4 6 19 14" fill="none" xmlns="http://www.w3.org/2000/svg">
<path d="M21.916 13.149C21.916 15.0977 21.916 17.0542 21.916 19.0029C21.916 19.1744 22.0017 19.3615 21.8381 19.5251C21.7055 19.6654 21.573 19.7512 21.3626 19.7512C20.357 19.7434 19.3593 19.7434 18.3538 19.7512C18.1121 19.7512 17.9718 19.6421 17.8627 19.455C17.3638 18.582 16.8572 17.709 16.3583 16.8359C15.3606 15.0743 14.3628 13.3049 13.3651 11.5432C13.3339 11.4965 13.3027 11.4419 13.2716 11.3951C13.2404 11.3484 13.2014 11.2938 13.1312 11.3172C13.0767 11.3328 13.0689 11.3874 13.0689 11.4419C13.0611 11.5355 13.0611 11.6368 13.0611 11.7303C13.0611 14.0999 13.0611 16.4618 13.0611 18.8314C13.0611 19.6265 12.9442 19.7434 12.1491 19.7434C11.658 19.7434 11.1669 19.7434 10.6759 19.7434C10.2238 19.7434 10.0445 19.5719 10.0445 19.1354C10.0445 15.1367 10.0445 11.1379 10.0445 7.13918C10.0445 6.69487 10.2394 6.50779 10.6993 6.50779C11.6892 6.50779 12.6869 6.51559 13.6769 6.5C13.9497 6.5 14.1368 6.58574 14.2771 6.82738C15.0332 8.16809 15.7971 9.5088 16.561 10.8417C17.2703 12.0889 17.9796 13.3361 18.6889 14.5832C18.7279 14.6534 18.7591 14.7703 18.8682 14.7313C18.954 14.7002 18.9462 14.6066 18.9462 14.5287C18.954 14.4195 18.9462 14.3182 18.9462 14.2091C18.9462 11.8784 18.9462 9.55557 18.9462 7.22492C18.9462 6.6559 19.1021 6.5 19.6789 6.5C20.2167 6.5 20.7624 6.5 21.3002 6.5C21.7523 6.5 21.916 6.66369 21.916 7.11579C21.916 9.13465 21.916 11.1379 21.916 13.149Z" fill="white"/>
<path d="M6.44328 9.41525C6.09251 9.41525 5.73395 9.41525 5.38319 9.41525C5.00124 9.40746 4.79857 9.21259 4.79078 8.83844C4.79078 8.22265 4.7596 7.60686 4.82975 6.99107C4.86093 6.70266 5.02462 6.52338 5.32083 6.51558C6.08472 6.50779 6.85641 6.50779 7.6203 6.51558C7.9165 6.52338 8.08799 6.70266 8.09578 7.00666C8.10358 7.64583 8.11137 8.28501 8.09578 8.91639C8.08799 9.22818 7.89312 9.39966 7.56574 9.41525C7.19158 9.42305 6.81743 9.41525 6.44328 9.41525Z" fill="white"/>
</svg>
